<?xml version="1.0" encoding="UTF-8"?>
<svg xmlns="http://www.w3.org/2000/svg" xmlns:xlink="http://www.w3.org/1999/xlink" width="25px" height="25px" viewBox="0 0 25 25" version="1.1">
<g id="surface1">
<path style=" stroke:none;fill-rule:nonzero;fill:rgb(40%,39.607843%,82.352941%);fill-opacity:1;" d="M 21.304688 6.238281 C 18.441406 4.097656 15.691406 4.15625 15.691406 4.15625 L 15.414062 4.476562 C 18.816406 5.496094 20.40625 7.003906 20.40625 7.003906 C 15.53125 4.316406 9.324219 4.335938 4.257812 7.003906 C 4.257812 7.003906 5.898438 5.417969 9.507812 4.394531 L 9.308594 4.15625 C 9.308594 4.15625 6.582031 4.097656 3.695312 6.238281 C 3.695312 6.238281 0.808594 11.425781 0.808594 17.816406 C 0.808594 17.816406 2.496094 20.703125 6.917969 20.84375 C 6.917969 20.84375 7.660156 19.960938 8.261719 19.199219 C 5.71875 18.441406 4.753906 16.855469 4.753906 16.855469 C 6.355469 17.855469 7.972656 18.480469 9.984375 18.882812 C 13.261719 19.554688 17.339844 18.863281 20.386719 16.855469 C 20.386719 16.855469 19.378906 18.480469 16.757812 19.222656 C 17.359375 19.960938 18.082031 20.824219 18.082031 20.824219 C 22.503906 20.683594 24.191406 17.796875 24.191406 17.816406 C 24.191406 11.429688 21.304688 6.238281 21.304688 6.238281 Z M 8.765625 15.957031 C 7.640625 15.957031 6.71875 14.976562 6.71875 13.75 C 6.800781 10.824219 10.746094 10.835938 10.804688 13.75 C 10.804688 14.976562 9.90625 15.957031 8.765625 15.957031 Z M 16.074219 15.957031 C 14.957031 15.957031 14.035156 14.976562 14.035156 13.75 C 14.121094 10.832031 18.019531 10.832031 18.121094 13.75 C 18.121094 14.976562 17.214844 15.957031 16.074219 15.957031 Z M 16.074219 15.957031 "/>
</g>
</svg>
